<svg xmlns="http://www.w3.org/2000/svg" width="140" height="19" viewBox="0 0 140 19" fill="none">
  <path d="M0 3.98314H4.9194V18.6491H8.34945V3.98314H13.2689V0.831055H0V3.98314Z" fill="#C0905D"/>
  <path d="M12.4116 11.5137C12.4116 12.652 12.6373 13.6589 13.0435 14.5345C13.4497 15.41 13.9912 16.1543 14.7134 16.7672C15.3903 17.3801 16.2027 17.8617 17.0602 18.1681C17.9177 18.4746 18.8204 18.6497 19.6779 18.6497C20.6708 18.6497 21.5735 18.4746 22.3858 18.1243C23.2433 17.7741 23.9203 17.2488 24.4619 16.5921V18.6059H27.8468V4.37776H24.4619V6.26025C23.9203 5.69112 23.2433 5.20956 22.431 4.85933C21.6186 4.5091 20.7159 4.33398 19.723 4.33398C18.7753 4.33398 17.9177 4.50909 17.0151 4.81554C16.1576 5.12199 15.3452 5.60356 14.6682 6.21646C13.9912 6.82937 13.4497 7.57362 13.0435 8.4492C12.6373 9.36855 12.4116 10.3755 12.4116 11.5137ZM16.1125 9.85012C16.3381 9.36855 16.654 8.93077 17.0602 8.53676C17.4664 8.18653 17.9177 7.88007 18.5045 7.66118C19.046 7.44228 19.6328 7.35472 20.2646 7.35472C20.8965 7.35472 21.4832 7.48606 22.0248 7.66118C22.5664 7.88007 23.0177 8.18653 23.4239 8.53676C23.8301 8.88699 24.1009 9.36855 24.3265 9.85012C24.5522 10.3755 24.6876 10.9008 24.6876 11.4699C24.6876 12.0391 24.5522 12.6082 24.3265 13.0898C24.1009 13.5713 23.7849 14.0529 23.4239 14.4031C23.0177 14.7971 22.5664 15.1036 22.0248 15.2787C21.4832 15.4976 20.8965 15.5852 20.2646 15.5852C19.6328 15.5852 19.046 15.4538 18.5045 15.2787C17.9629 15.0598 17.4664 14.7534 17.0602 14.4031C16.654 14.0529 16.3381 13.5713 16.1125 13.0898C15.8868 12.5644 15.7514 12.0391 15.7514 11.4262C15.7965 10.9008 15.8868 10.3755 16.1125 9.85012Z" fill="#C0905D"/>
  <path d="M38.4078 15.3222C38.0017 15.6724 37.3698 15.8037 36.5123 15.8037C35.6999 15.8037 34.9778 15.6286 34.3911 15.2784C33.8044 14.9282 33.3079 14.4466 32.9468 13.8337L29.7876 15.1908C30.3743 16.2853 31.1867 17.1609 32.2699 17.73C33.353 18.2991 34.707 18.6056 36.3318 18.6056C37.3698 18.6056 38.2724 18.4742 39.0397 18.1678C39.8069 17.9051 40.4388 17.5111 40.9352 17.0733C41.4317 16.6355 41.7928 16.154 42.0184 15.6286C42.2441 15.1033 42.3795 14.6217 42.3795 14.1401C42.3795 13.4397 42.2441 12.8268 41.9282 12.3452C41.6122 11.8636 41.206 11.4696 40.7096 11.1632C40.2131 10.8567 39.6264 10.6378 39.0397 10.4189C38.453 10.2 37.8211 10.1125 37.2344 9.98112C36.1061 9.76223 35.2937 9.54333 34.707 9.36822C34.1203 9.1931 33.8495 8.84287 33.8495 8.40508C33.8495 8.01107 34.03 7.66084 34.4362 7.39816C34.7973 7.09171 35.4291 6.96038 36.2415 6.96038C36.9636 6.96038 37.5503 7.09172 38.0919 7.35439C38.6335 7.61707 39.0397 8.01107 39.3556 8.49264L42.2441 7.17927C41.6574 6.25992 40.8901 5.55946 39.8972 5.03412C38.9043 4.50877 37.6857 4.24609 36.1964 4.24609C35.3389 4.24609 34.5265 4.37742 33.8044 4.59632C33.0822 4.81521 32.4955 5.12166 31.9539 5.51567C31.4575 5.90968 31.0513 6.34747 30.7805 6.87282C30.5097 7.39817 30.3743 7.92352 30.3743 8.44886C30.3743 9.14933 30.5097 9.76223 30.8256 10.2438C31.1416 10.7254 31.5026 11.1194 31.9991 11.4258C32.4955 11.7323 33.0371 11.9512 33.669 12.1263C34.2557 12.3014 34.8875 12.4327 35.5645 12.5641C36.0158 12.6516 36.4672 12.7392 36.8733 12.8268C37.2795 12.9143 37.6406 13.0019 37.9565 13.1332C38.2724 13.2645 38.4981 13.3959 38.7238 13.5272C38.9043 13.7023 39.0397 13.8774 39.0397 14.1401C39.0397 14.6217 38.814 15.0157 38.4078 15.3222Z" fill="#C0905D"/>
  <path d="M69.3227 6.30402C68.6457 5.69112 67.8333 5.20956 66.9307 4.85933C65.9829 4.5091 64.99 4.33398 63.9068 4.33398C62.8237 4.33398 61.8308 4.50909 60.883 4.9031C59.9352 5.29711 59.1228 5.77869 58.4459 6.43537C57.7689 7.09205 57.2273 7.8363 56.8211 8.71188C56.4149 9.58745 56.2344 10.5506 56.2344 11.5575C56.2344 12.5644 56.4149 13.4838 56.776 14.3593C57.137 15.2349 57.6786 15.9792 58.3556 16.6358C59.0326 17.2925 59.8449 17.7741 60.7927 18.1681C61.7405 18.5184 62.8237 18.7372 63.952 18.7372C65.6219 18.7372 67.021 18.387 68.1493 17.6866C69.2776 16.9861 70.1802 16.023 70.8121 14.8847L68.0139 13.3087C67.6528 14.0967 67.1112 14.7096 66.4342 15.1474C65.7121 15.5852 64.8998 15.8478 63.952 15.8478C62.7334 15.8478 61.7405 15.5414 60.9733 14.9285C60.1609 14.3156 59.6644 13.4838 59.4388 12.4768H71.4439V11.2948C71.4439 10.2879 71.2634 9.36856 70.8572 8.53676C70.4961 7.66118 69.9997 6.91693 69.3227 6.30402ZM59.6193 9.63123C59.9352 8.93077 60.4317 8.31785 61.1989 7.88007C61.9662 7.44228 62.8237 7.22339 63.8617 7.22339C64.9449 7.22339 65.8024 7.44228 66.5245 7.83629C67.2466 8.2303 67.7431 8.84321 67.9687 9.63123H59.6193Z" fill="#C0905D"/>
  <path d="M74.062 18.6491H77.4921V6.25965L82.9982 13.5269L88.6397 6.17209V18.6491H92.0697V0.831055H88.8202L83.0433 8.31726L77.4469 0.831055H74.062V18.6491Z" fill="#C0905D"/>
  <path d="M96.8987 16.811C97.5756 17.4239 98.388 17.9054 99.2455 18.2119C100.103 18.5183 101.006 18.6935 101.863 18.6935C102.856 18.6935 103.759 18.5184 104.571 18.1681C105.429 17.8179 106.106 17.2925 106.647 16.6358V18.6497H110.032V4.37776H106.647V6.26025C106.106 5.69112 105.429 5.20956 104.616 4.85933C103.804 4.5091 102.901 4.33398 101.908 4.33398C101.006 4.33398 100.103 4.50909 99.2004 4.81554C98.3429 5.12199 97.5305 5.60356 96.8535 6.21646C96.1765 6.82937 95.635 7.57362 95.2288 8.4492C94.8226 9.32477 94.5969 10.3317 94.5969 11.5137C94.5969 12.652 94.8226 13.6589 95.2288 14.5345C95.6801 15.4538 96.2217 16.1981 96.8987 16.811ZM98.2978 9.85012C98.5234 9.36855 98.8393 8.93077 99.2455 8.53676C99.6517 8.18652 100.103 7.88007 100.69 7.66117C101.231 7.44228 101.818 7.35472 102.45 7.35472C103.082 7.35472 103.668 7.48606 104.21 7.66117C104.752 7.88007 105.203 8.18652 105.609 8.53676C106.015 8.88699 106.286 9.36855 106.512 9.85012C106.737 10.3755 106.873 10.9008 106.873 11.4699C106.873 12.0391 106.737 12.6082 106.512 13.0898C106.286 13.5713 105.97 14.0529 105.609 14.4031C105.203 14.7971 104.752 15.1036 104.21 15.2787C103.668 15.4976 103.082 15.5852 102.45 15.5852C101.818 15.5852 101.231 15.4538 100.69 15.2787C100.148 15.0598 99.6517 14.7534 99.2455 14.4031C98.8393 14.0529 98.5234 13.5713 98.2978 13.0898C98.0721 12.5644 97.9367 12.0391 97.9367 11.4262C97.9818 10.9008 98.0721 10.3755 98.2978 9.85012Z" fill="#C0905D"/>
  <path d="M126.912 16.635C127.589 17.2917 128.401 17.7733 129.349 18.1673C130.297 18.5175 131.38 18.7364 132.508 18.7364C134.178 18.7364 135.577 18.3862 136.705 17.6857C137.834 16.9853 138.736 16.0222 139.368 14.8839L136.57 13.3079C136.209 14.0521 135.667 14.665 134.99 15.1466C134.268 15.5844 133.456 15.847 132.508 15.847C131.29 15.847 130.297 15.5406 129.529 14.9277C128.762 14.3148 128.221 13.483 127.995 12.476H140V11.294C140 10.2871 139.82 9.36775 139.413 8.53595C139.052 7.70415 138.511 6.95991 137.834 6.34701C137.157 5.7341 136.344 5.25253 135.442 4.9023C134.494 4.55206 133.501 4.37695 132.418 4.37695C131.335 4.37695 130.342 4.55207 129.394 4.94608C128.446 5.34009 127.634 5.82166 126.957 6.47834C126.28 7.13502 125.738 7.87927 125.332 8.75484C124.926 9.63042 124.745 10.5936 124.745 11.6005C124.745 12.6074 124.926 13.5267 125.287 14.4023C125.693 15.2341 126.235 15.9784 126.912 16.635ZM129.755 7.92305C130.522 7.48526 131.38 7.26636 132.418 7.26636C133.501 7.26636 134.359 7.48525 135.081 7.87926C135.803 8.27327 136.299 8.88618 136.525 9.6742H128.175C128.491 8.92996 129.033 8.36084 129.755 7.92305Z" fill="#C0905D"/>
  <path d="M47.4338 4.33412H44.094V7.31107H47.4338V12.6959C47.4338 13.8341 47.524 14.7973 47.7046 15.5415C47.8851 16.2858 48.201 16.8987 48.6523 17.3802C49.1037 17.8618 49.7355 18.1683 50.4576 18.3871C51.2249 18.5623 52.1727 18.6936 53.301 18.6936H53.7974H54.6098V15.5853H53.7974C53.1204 15.5853 52.624 15.5415 52.2178 15.4977C51.8116 15.454 51.5408 15.2788 51.3151 15.1037C51.0895 14.8848 50.9541 14.6222 50.909 14.2281C50.8638 13.8341 50.8187 13.3526 50.8187 12.7397V7.39863H54.6549V4.42166H50.8187V0L47.4338 2.18895V4.33412Z" fill="#C0905D"/>
  <path d="M116.125 4.33412H112.785V7.31107H116.125V12.6959C116.125 13.8341 116.215 14.7973 116.396 15.5415C116.576 16.2858 116.892 16.8987 117.344 17.3802C117.795 17.8618 118.427 18.1683 119.149 18.3871C119.916 18.5623 120.864 18.6936 121.992 18.6936H122.489H123.301V15.5853H122.489C121.812 15.5853 121.315 15.5415 120.909 15.4977C120.503 15.454 120.232 15.2788 120.006 15.1037C119.781 14.8848 119.645 14.6222 119.6 14.2281C119.555 13.8341 119.51 13.3526 119.51 12.7397V7.39863H123.346V4.42166H119.51V0L116.08 2.27651V4.33412H116.125Z" fill="#C0905D"/>
</svg>