<svg width="80" height="80" viewBox="0 0 80 80" fill="none" xmlns="http://www.w3.org/2000/svg">
<rect width="80" height="80" rx="40" fill="#FEE9ED"/>
<path d="M55 29.9667C49.45 29.4167 43.8667 29.1333 38.3 29.1333C35 29.1333 31.7 29.3 28.4 29.6333L25 29.9667" stroke="#ED1F42" stroke-width="2" stroke-linecap="round" stroke-linejoin="round"/>
<path d="M34.1666 28.2833L34.5333 26.1C34.8 24.5167 35 23.3333 37.8166 23.3333H42.1833C45 23.3333 45.2166 24.5833 45.4666 26.1167L45.8333 28.2833" stroke="#ED1F42" stroke-width="2" stroke-linecap="round" stroke-linejoin="round"/>
<path d="M51.4173 35.2332L50.334 52.0165C50.1507 54.6332 50.0006 56.6665 45.3506 56.6665H34.6507C30.0007 56.6665 29.8507 54.6332 29.6673 52.0165L28.584 35.2332" stroke="#ED1F42" stroke-width="2" stroke-linecap="round" stroke-linejoin="round"/>
<path d="M37.2167 47.5H42.7667" stroke="#ED1F42" stroke-width="2" stroke-linecap="round" stroke-linejoin="round"/>
<path d="M35.8334 40.8333H44.1667" stroke="#ED1F42" stroke-width="2" stroke-linecap="round" stroke-linejoin="round"/>
</svg>
