<svg width="308" height="200" viewBox="0 0 308 200" fill="none" xmlns="http://www.w3.org/2000/svg">
<path d="M254.216 60.108L250.299 78.648L247.778 76.244L243.488 79.236L240.209 75.256L232.857 80.48L226.574 70.212L219.566 74.224L216.787 70.48L207.888 75.38L205.211 69.776L211.449 40.252L244.892 47L254.216 60.108Z" fill="#EBEBEB"/>
<path d="M244.892 47L254.217 60.108L242.616 57.768L244.892 47Z" fill="#DBDBDB"/>
<path d="M249.464 82.3524L243.721 109.552L198.674 100.464L204.376 73.4844L207.053 79.0844L215.956 74.1844L218.731 77.9284L225.743 73.9204L232.022 84.1884L239.378 78.9644L242.653 82.9404L246.947 79.9524L249.464 82.3524Z" fill="#EBEBEB"/>
<path d="M184.99 79.164L139.083 81.94L135.436 24.356L169.525 22.292L182.039 32.552L184.99 79.164Z" fill="#EBEBEB"/>
<path d="M169.525 22.292L182.039 32.552L170.217 33.268L169.525 22.292Z" fill="#DBDBDB"/>
<path d="M156.816 61.0396L156.636 59.7396C156.173 57.0476 156.926 54.0356 159.321 50.8876C161.482 48.0876 162.653 46.0876 162.522 43.8156C162.375 41.2556 160.635 39.6396 157.397 39.7676C155.547 39.8615 153.769 40.5032 152.301 41.6076L150.889 38.5156C152.526 37.2156 155.391 36.2556 158.113 36.1156C164.02 35.7956 166.894 39.2116 167.119 43.0236C167.315 46.4356 165.506 48.9996 163.206 51.9956C161.093 54.7276 160.402 56.9796 160.7 59.5276L160.827 60.8316L156.816 61.0396ZM156.087 68.1236C155.981 66.2676 157.188 64.8916 158.985 64.7956C160.782 64.6996 162.092 65.9316 162.199 67.7916C162.297 69.5476 161.196 70.9636 159.296 71.0676C157.483 71.1676 156.173 69.8796 156.071 68.1236H156.087Z" fill="#DBDBDB"/>
<path d="M66.4634 126.712C66.6206 122.846 66.5673 118.973 66.3038 115.112C65.7187 107.139 64.473 99.2249 62.5788 91.4482C61.5391 87.0722 60.262 82.7682 58.9317 78.4682C58.8907 78.3362 58.6779 78.3722 58.7147 78.5082C62.8326 93.6682 66.2137 109.308 65.9804 125.068C65.9149 129.468 65.395 133.808 64.9652 138.192C64.9652 138.308 65.1494 138.356 65.1781 138.236C66.0295 134.472 66.3038 130.544 66.4634 126.712Z" fill="#EBEBEB"/>
<path d="M58.715 78.496C58.715 78.496 52.4727 93.976 53.8726 97.616C55.2725 101.256 58.1501 102.016 58.1501 102.016C58.1501 102.016 54.331 107.344 56.9999 112.34C59.6687 117.336 65.5959 117.1 66.0052 122.764C65.9888 122.776 66.3204 99.092 58.715 78.496Z" fill="#EBEBEB"/>
<path d="M60.299 92.2836C59.1687 91.5975 57.8784 91.2038 56.5495 91.1396C56.5429 91.1396 56.5367 91.1422 56.5321 91.1467C56.5275 91.1512 56.5249 91.1573 56.5249 91.1636C56.5249 91.17 56.5275 91.1761 56.5321 91.1806C56.5367 91.1851 56.5429 91.1876 56.5495 91.1876C57.8333 91.4254 59.079 91.8289 60.2539 92.3876C60.268 92.3935 60.2839 92.3936 60.2982 92.388C60.3124 92.3823 60.3237 92.3714 60.3297 92.3576C60.3356 92.3439 60.3357 92.3283 60.33 92.3144C60.3242 92.3006 60.3131 92.2895 60.299 92.2836Z" fill="white"/>
<path d="M61.0562 108.672C60.1876 108.186 59.2316 107.867 58.24 107.732C58.2072 107.732 58.2031 107.776 58.24 107.784C59.2085 107.974 60.1452 108.295 61.0235 108.736C61.0603 108.756 61.093 108.692 61.0562 108.672Z" fill="white"/>
<path d="M82.8697 97.868C80.232 99.6506 77.8096 101.72 75.6491 104.036C73.4197 106.489 71.6987 109.342 70.5816 112.436C68.2106 118.883 66.9358 125.666 66.8075 132.516C66.7294 136.309 67.103 140.099 67.9209 143.808C67.9275 143.835 67.9445 143.858 67.9683 143.873C67.9921 143.889 68.021 143.894 68.0489 143.889C68.0767 143.884 68.1015 143.868 68.1181 143.846C68.1347 143.823 68.1417 143.795 68.1378 143.768C67.1184 137.223 67.1557 130.562 68.2484 124.028C69.3249 117.628 71.0073 110.66 75.1702 105.456C77.442 102.62 80.2664 100.392 83.0621 98.088C83.2095 97.96 83.0212 97.764 82.8697 97.868Z" fill="#EBEBEB"/>
<path d="M67.7285 127.9C69.2292 125.525 70.9946 123.319 72.9925 121.324C76.1158 118.272 78.7437 116.104 79.1325 114.088C79.5214 112.072 76.0052 110.584 76.0052 110.584C76.0052 110.584 80.3278 111.344 81.5067 109.572C82.6856 107.8 83.2627 97.536 83.2627 97.536C83.2627 97.536 75.3994 103.02 71.74 110.708C68.0805 118.396 67.7285 127.9 67.7285 127.9Z" fill="#EBEBEB"/>
<path d="M80.471 107.164C79.9535 107.089 79.4289 107.071 78.9073 107.112C78.8459 107.112 78.85 107.216 78.9073 107.22C79.4272 107.22 79.9429 107.196 80.4628 107.22C80.4684 107.218 80.4733 107.215 80.4771 107.21C80.4809 107.206 80.4833 107.2 80.4841 107.194C80.485 107.189 80.4842 107.183 80.4819 107.177C80.4796 107.172 80.4758 107.167 80.471 107.164Z" fill="white"/>
<path d="M74.8137 117.12C73.9837 117.136 73.1633 117.296 72.3904 117.592C72.37 117.592 72.3904 117.632 72.3904 117.628C73.1886 117.44 73.9991 117.364 74.8055 117.228C74.8833 117.224 74.8833 117.12 74.8137 117.12Z" fill="white"/>
<path d="M73.1191 113.68C72.7732 113.677 72.4278 113.707 72.0875 113.768C72.0548 113.768 72.0548 113.828 72.0875 113.828C72.432 113.847 72.7776 113.833 73.1191 113.784C73.1332 113.784 73.1467 113.778 73.1567 113.769C73.1667 113.759 73.1723 113.746 73.1723 113.732C73.1723 113.718 73.1667 113.705 73.1567 113.695C73.1467 113.685 73.1332 113.68 73.1191 113.68Z" fill="white"/>
<path d="M44.6869 108.756C47.2439 109.603 49.6939 110.732 51.9894 112.12C54.3739 113.599 56.4412 115.518 58.0761 117.768C61.5195 122.45 64.155 127.65 65.878 133.164C66.8411 136.217 67.4359 139.369 67.6505 142.556C67.646 142.577 67.6344 142.595 67.6176 142.609C67.6009 142.622 67.5799 142.629 67.5584 142.629C67.5368 142.629 67.5158 142.622 67.4991 142.609C67.4823 142.595 67.4707 142.577 67.4663 142.556C66.7404 137.03 65.1341 131.649 62.7057 126.608C60.3234 121.668 57.3148 116.412 52.7098 113.14C50.2047 111.36 47.3885 110.192 44.5804 108.96C44.4331 108.912 44.5395 108.708 44.6869 108.756Z" fill="#EBEBEB"/>
<path d="M64.0444 129.64C62.2669 128.058 60.3163 126.672 58.2277 125.508C54.9817 123.744 52.3415 122.584 51.5351 121.044C50.7287 119.504 53.238 117.504 53.238 117.504C53.238 117.504 49.9224 119.104 48.5429 117.924C47.1634 116.744 44.2817 108.584 44.2817 108.584C44.2817 108.584 51.9363 111.244 56.7173 116.64C61.4983 122.036 64.0444 129.64 64.0444 129.64Z" fill="#EBEBEB"/>
<path d="M51.0112 113.568C50.6677 113.541 50.322 113.559 49.9838 113.624C49.9775 113.626 49.9721 113.63 49.9683 113.636C49.9645 113.641 49.9624 113.647 49.9624 113.654C49.9624 113.661 49.9645 113.667 49.9683 113.672C49.9721 113.678 49.9775 113.682 49.9838 113.684C50.3194 113.648 50.6551 113.66 50.9907 113.652C51.0562 113.652 51.0685 113.572 51.0112 113.568Z" fill="white"/>
<path d="M73.9214 152.872H56.6353L59.1035 135.228L59.7298 130.704H70.8268L71.4572 135.228L73.9214 152.872Z" fill="#DBDBDB"/>
<path d="M71.4572 135.228H59.1035L59.7298 130.704H70.8268L71.4572 135.228Z" fill="#C7C7C7"/>
<path d="M72.4154 129.136H58.146V132.968H72.4154V129.136Z" fill="#DBDBDB"/>
<path d="M29.665 152.872L60.7785 152.776L91.8919 152.74L154.115 152.672L216.342 152.74L247.455 152.776L278.568 152.872L247.455 152.972L216.342 153.004L154.115 153.072L91.8919 153.004L60.7785 152.968L29.665 152.872Z" fill="#263238"/>
<path d="M156.063 182.685C220.886 182.685 273.435 177.058 273.435 170.117C273.435 163.176 220.886 157.549 156.063 157.549C91.2398 157.549 38.6904 163.176 38.6904 170.117C38.6904 177.058 91.2398 182.685 156.063 182.685Z" fill="#EBEBEB"/>
<path d="M217.119 172.82H92.4033L110.434 72.8799H235.15L217.119 172.82Z" fill="#DFC9A9"/>
<path d="M153.12 62.5283H112.305L110.435 72.8803H154.115L153.12 62.5283Z" fill="#DFC9A9"/>
<g opacity="0.1">
<path d="M217.119 172.82H92.4033L110.434 72.8799H235.15L217.119 172.82Z" fill="white"/>
<path d="M153.12 62.5283H112.305L110.435 72.8803H154.115L153.12 62.5283Z" fill="white"/>
</g>
<path d="M216.935 172.821H91.9533L74.2046 76.5088H199.19L216.935 172.821Z" fill="#DFC9A9"/>
<path d="M117.516 135.384C120.385 135.384 122.711 133.112 122.711 130.308C122.711 127.505 120.385 125.232 117.516 125.232C114.647 125.232 112.322 127.505 112.322 130.308C112.322 133.112 114.647 135.384 117.516 135.384Z" fill="white"/>
<path d="M158.581 135.384C161.449 135.384 163.775 133.112 163.775 130.308C163.775 127.505 161.449 125.232 158.581 125.232C155.712 125.232 153.386 127.505 153.386 130.308C153.386 133.112 155.712 135.384 158.581 135.384Z" fill="white"/>
<path d="M145.51 136.196L145.224 135.664C145.199 135.616 142.514 130.768 137.115 130.768C132.203 130.768 130.975 135.332 130.942 135.528L130.795 136.108L129.604 135.828L129.747 135.244C129.747 135.188 131.212 129.568 137.115 129.568C143.255 129.568 146.19 134.88 146.313 135.108L146.599 135.636L145.51 136.196Z" fill="white"/>
<path d="M111 71.23C110.727 70.0853 110.727 68.8947 111 67.75C111.273 68.8947 111.273 70.0853 111 71.23Z" fill="white"/>
<path d="M107.374 72.2541C106.957 71.8318 106.598 71.3585 106.305 70.8461C105.998 70.3444 105.758 69.8068 105.589 69.2461C106.007 69.6659 106.366 70.138 106.657 70.6501C106.963 71.1536 107.204 71.6924 107.374 72.2541Z" fill="white"/>
<path d="M104.754 74.9138C103.603 74.5721 102.549 73.9768 101.671 73.1738C102.245 73.3368 102.795 73.5707 103.309 73.8698C103.833 74.1575 104.319 74.5082 104.754 74.9138Z" fill="white"/>
<path d="M103.837 78.4989C102.665 78.7656 101.447 78.7656 100.275 78.4989C101.447 78.2322 102.665 78.2322 103.837 78.4989Z" fill="white"/>
<path d="M104.901 82.043C104.467 82.4481 103.983 82.7988 103.46 83.087C102.947 83.3861 102.397 83.62 101.823 83.783C102.255 83.3757 102.739 83.0248 103.264 82.739C103.776 82.4384 104.327 82.2044 104.901 82.043Z" fill="white"/>
<path d="M107.619 84.5977C107.271 85.7233 106.661 86.7554 105.838 87.6137C106.005 87.0522 106.246 86.5143 106.555 86.0137C106.847 85.4994 107.204 85.0236 107.619 84.5977Z" fill="white"/>
<path d="M111.286 85.4824C111.429 86.0517 111.498 86.6363 111.491 87.2224C111.5 87.8086 111.431 88.3935 111.286 88.9624C111.14 88.3938 111.071 87.8087 111.082 87.2224C111.075 86.6363 111.144 86.0517 111.286 85.4824Z" fill="white"/>
<path d="M114.913 84.4777C115.33 84.9001 115.689 85.3733 115.981 85.8857C116.289 86.3865 116.528 86.9244 116.694 87.4857C115.871 86.6275 115.262 85.5954 114.913 84.4697V84.4777Z" fill="white"/>
<path d="M117.529 81.7979C118.103 81.9593 118.654 82.1933 119.166 82.4938C119.691 82.7796 120.175 83.1306 120.607 83.5378C120.033 83.3764 119.482 83.1424 118.97 82.8419C118.445 82.5561 117.961 82.2051 117.529 81.7979Z" fill="white"/>
<path d="M118.434 78.2146C119.606 77.948 120.826 77.948 121.999 78.2146C120.826 78.4812 119.606 78.4812 118.434 78.2146Z" fill="white"/>
<path d="M117.386 74.6697C117.819 74.2648 118.303 73.9154 118.826 73.6297C119.338 73.3263 119.889 73.0908 120.464 72.9297C119.586 73.7338 118.529 74.3292 117.377 74.6697H117.386Z" fill="white"/>
<path d="M114.664 72.1144C114.832 71.5543 115.071 71.0168 115.376 70.5144C115.668 70.002 116.027 69.5288 116.444 69.1064C116.279 69.6678 116.039 70.2056 115.732 70.7064C115.439 71.2189 115.08 71.6921 114.664 72.1144Z" fill="white"/>
</svg>
