<svg width="273" height="400" viewBox="0 0 273 400" fill="none" xmlns="http://www.w3.org/2000/svg">
<path d="M18.068 171.739C16.6098 171.739 14.7227 171.824 13.3502 171.824H10.0907C6.40219 171.824 4.7724 173.196 4.7724 175.938C4.7724 177.737 5.5444 179.451 7.5173 181.079C5.63018 181.593 4.7724 182.879 4.7724 184.85C4.7724 186.649 5.80174 188.363 7.43153 189.906L5.11551 190.163L4.7724 190.677L6.65952 195.733H7.77464L8.03197 193.59C9.23287 193.505 10.0049 193.505 11.7204 193.505H13.2644C14.5511 193.505 16.524 193.505 17.9823 193.59L18.3254 195.561H19.5263V193.676V189.906V188.192H18.4969L18.1538 189.991C16.6098 189.991 14.7227 189.991 13.436 189.991H8.88976C7.9462 188.963 7.34575 187.849 7.34575 186.735C7.34575 185.192 8.20353 184.593 10.6053 184.593H13.3502C14.7227 184.593 16.6098 184.593 18.068 184.678L18.4111 186.564H19.612V184.678V180.736V179.023H18.4969L18.1538 180.736C16.6956 180.736 14.8085 180.822 13.436 180.822H10.2622C9.74754 180.822 9.31865 180.822 8.97554 180.908C7.9462 179.794 7.43153 178.68 7.43153 177.566C7.43153 176.023 8.11775 175.424 10.6911 175.424H13.436C14.8085 175.424 16.6956 175.424 18.1538 175.509L18.4969 177.394H19.6978V175.595V171.824V170.025H18.4969L18.068 171.739Z" fill="white"/>
<path d="M20.2119 161.196L6.74473 156.055L6.40162 154.341H5.2865V155.455V157.254V160.168H6.48739L6.83051 157.854L16.0946 161.196L6.83051 164.538L6.48739 162.139H5.2865V165.052V169.08V170.023H6.48739L6.74473 168.48L20.6408 162.739L20.8124 162.824C22.3564 163.339 23.7288 164.195 24.7582 165.224L24.5008 165.395C23.4715 166.252 23.2142 167.023 23.2142 167.795C23.2142 168.823 23.7288 169.851 24.8439 170.023C26.0448 169.937 26.9884 168.651 26.9884 167.109C27.0742 164.538 24.9297 162.996 20.2119 161.196Z" fill="white"/>
<path d="M6.05907 147.23L6.40219 145.688L19.6978 141.574L19.7836 139.946L9.74754 135.662C11.8062 135.147 14.7227 134.29 20.1267 132.491L20.2125 130.863L7.43153 125.635L7.17419 124.007L6.05907 123.922V125.036L5.9733 126.921L5.80174 129.406L7.08841 129.492L7.5173 127.521L15.752 130.606L7.17419 133.091L6.91686 131.12L5.71596 131.034L5.5444 133.605L5.45863 135.49L5.28707 138.061L6.57374 138.147L7.00264 136.176L15.3231 139.689L6.65952 142.003L6.48797 139.946L5.20129 139.775L4.85818 145.859V146.116L4.7724 147.059L6.05907 147.23Z" fill="white"/>
<path d="M9.40344 122.293L10.0897 120.237C11.2906 120.408 12.2341 120.494 13.8639 120.837L15.2364 121.094C16.523 121.351 18.4102 121.694 19.8684 121.951V124.007L21.0693 124.264L21.4124 122.379L22.0986 118.694L22.4417 116.98L21.2408 116.723L20.5546 118.437C19.0964 118.18 17.2093 117.837 15.9226 117.666L11.9768 116.98L7.85943 116.124L7.43054 116.552L8.3741 122.293H9.40344Z" fill="white"/>
<path d="M2.62713 114.667C1.34046 114.41 0.31112 115.267 0.0537849 116.553C-0.20355 117.838 0.482676 118.952 1.76935 119.209C2.97025 119.466 4.08536 118.609 4.25692 117.324C4.60003 116.039 3.82803 114.839 2.62713 114.667Z" fill="white"/>
<path d="M25.1004 100.781C23.6422 100.438 21.8408 99.8385 20.5541 99.4958L17.5519 98.6388C13.9492 97.6105 11.9763 98.5532 11.2043 101.038C10.6896 102.752 11.0328 104.723 12.3194 106.694L10.0034 106.265L9.57452 106.608L10.0034 112.007L11.0328 112.35L11.8905 110.379C13.0914 110.636 13.8634 110.893 15.4074 111.321L16.9515 111.75C18.2381 112.093 20.0395 112.692 21.4977 113.121L21.3261 115.092L22.527 115.435L23.0417 113.635L24.0711 109.95L24.5857 108.236L23.3848 107.894L22.527 109.522C21.0688 109.093 19.2675 108.579 17.9808 108.236L13.6919 106.951C13.0914 105.494 12.9199 104.295 13.1772 103.266C13.6061 101.809 14.5497 101.467 16.7799 102.152L19.5248 102.923C20.8115 103.266 22.6128 103.866 24.0711 104.295L23.8995 106.265L25.1004 106.608L27.1591 99.4101L25.9582 99.0673L25.1004 100.781Z" fill="white"/>
<path d="M29.1336 85.5279C29.734 86.899 29.9914 88.2701 29.2194 89.8982C28.19 92.2119 25.874 93.1545 22.7002 91.9548L26.3887 83.557C26.0456 83.2999 25.5309 82.9571 24.9305 82.7C21.6709 81.1576 18.4971 82.3573 17.0389 85.6136C15.4948 89.127 16.6957 93.4973 21.1562 95.4682C25.4451 97.3535 29.2194 95.8967 30.9349 92.0405C32.0501 89.4698 31.7927 87.0704 30.1629 85.0994L29.1336 85.5279ZM18.3255 86.3848C18.926 85.0994 20.5558 84.4996 22.2713 85.2708C23.3007 85.6993 23.7296 86.2991 23.1291 87.5845L21.4993 91.355C18.2398 89.6412 17.7251 87.7559 18.3255 86.3848Z" fill="white"/>
<path d="M70.3069 40.2838L68.6771 41.2264C67.6478 40.1124 66.3611 38.7413 65.5033 37.713L63.3589 35.3136C60.8713 32.5714 58.8126 32.2286 56.7539 34.0282C55.3815 35.2279 54.6095 36.9417 54.6952 39.5125C52.9797 38.4842 51.5214 38.6556 50.0632 39.941C48.605 41.2264 48.0045 43.1116 48.0045 45.2539L46.289 43.6258L45.7743 43.7971L43.201 48.5102L43.973 49.3672L45.7743 48.1675C46.6321 49.0244 47.1468 49.6242 48.2619 50.8239L49.2912 52.0236C50.149 53.0519 51.4357 54.423 52.3792 55.6227L51.1783 57.1652L52.0361 58.1078L53.4944 56.8224L53.6659 56.7367L57.6975 53.1376L56.7539 52.195L55.2099 53.0519C54.1806 52.0236 52.8939 50.5669 52.0361 49.6242L49.0339 46.2822C49.2054 44.9112 49.6343 43.7115 50.4921 42.9402C51.6072 41.9119 52.6366 42.169 54.2664 43.9685L56.0677 46.0252C56.9255 47.0535 58.2122 48.4245 59.1557 49.6242L57.9548 51.1667L58.8126 52.1093L60.1851 50.9096L63.0157 48.4245L64.3024 47.3105L63.5304 46.2822L61.9006 47.1392C60.9571 46.1108 59.6704 44.6541 58.7268 43.6258L56.6681 41.3121C56.325 40.9693 56.0677 40.6265 55.7246 40.3694C55.8961 38.827 56.4108 37.7987 57.1828 37.0274C58.2979 35.9991 59.2415 36.0848 60.9571 37.9701L62.7584 40.0267C63.702 41.055 64.9029 42.5118 65.9322 43.6258L64.7313 45.1682L65.5891 46.1108L69.1918 42.9402L69.7922 42.4261L71.0789 41.2264L70.3069 40.2838Z" fill="white"/>
<path d="M75.6234 23.6594L76.9101 22.4597L76.2238 21.5171L71.3345 24.602L71.9349 25.6303L74.0794 24.6877L76.2238 34.2853L68.418 28.2011L70.2193 26.6586L69.6189 25.6303L62.9282 29.8293L63.5286 30.8576L64.9869 30.2577L77.2532 38.9984L77.3389 39.1698C77.6821 40.7122 77.7678 42.3404 77.4247 43.7972L77.0816 43.7115C75.8807 43.283 75.1087 43.5401 74.4225 43.9685C73.4789 44.4827 72.9643 45.4253 73.3931 46.4536C74.0794 47.4819 75.7092 47.4819 76.9958 46.7107C79.2261 45.3396 79.3976 42.6832 78.3683 37.7987L75.6234 23.6594Z" fill="white"/>
<path d="M94.8382 27.0042C94.2378 25.6331 93.5515 23.9193 93.0369 22.7196L92.2649 20.7487C92.0933 19.0348 92.3506 17.578 92.9511 16.3783L93.2942 16.5497C94.152 16.9782 94.8382 17.0639 95.6102 16.7211C96.7253 16.2926 97.0684 15.1786 96.5538 13.8076C95.8675 12.9506 94.7524 12.7792 93.7231 13.2077C92.2649 13.8076 91.1497 15.7785 91.3213 18.435L89.6915 15.1786L89.0911 15.0929L85.1453 18.7777L85.5742 19.806L87.6328 19.2919C88.1475 20.4059 88.4906 21.0914 89.0911 22.6339L89.6915 24.0907C90.2062 25.2904 90.8924 27.0899 91.4071 28.461L89.7773 29.575L90.2062 30.689L97.7547 27.6041L97.3258 26.4901L94.8382 27.0042Z" fill="white"/>
<path d="M109.336 21.9469C106.934 22.6325 104.704 21.4328 103.675 18.1764L112.596 15.6914C112.596 15.2629 112.51 14.663 112.338 14.0632C111.395 10.5498 108.478 8.83595 105.047 9.77857C101.359 10.8069 98.6996 14.4917 99.9863 19.2048C101.273 23.7465 104.79 25.7174 108.821 24.6034C111.566 23.8322 113.196 22.1183 113.711 19.6332L112.681 19.1191C111.909 20.4044 111.052 21.4328 109.336 21.9469ZM105.047 11.2353C106.505 10.8069 107.964 11.7495 108.478 13.549C108.736 14.5774 108.564 15.2629 107.192 15.6914L103.246 16.8054C102.56 13.292 103.675 11.5781 105.047 11.2353Z" fill="white"/>
<path d="M122.117 12.5221L120.916 12.3507C118.772 12.008 118.085 11.4938 117.914 10.4655C117.742 9.18012 118.514 8.40888 120.144 8.1518C120.83 8.06611 121.431 8.06611 122.031 8.2375L122.975 10.6369L124.948 10.3798L124.605 7.20919C123.061 6.60934 121.688 6.43795 119.973 6.69503C116.284 7.20919 114.568 9.60858 114.912 12.0937C115.255 14.236 116.799 15.35 119.201 15.7784L120.745 16.0355C122.803 16.3783 123.575 16.8924 123.747 18.0065C123.918 19.2918 123.061 20.1488 121.002 20.4915C120.144 20.5772 119.372 20.5772 118.6 20.4058L117.656 17.7494L115.684 17.9208L116.198 21.3485C117.828 21.9483 119.372 22.2054 121.173 21.8626C125.205 21.2628 127.178 19.0348 126.749 16.2926C126.492 14.3217 125.205 13.0363 122.117 12.5221Z" fill="white"/>
<path d="M135.67 18.6041C134.726 18.6898 134.04 18.0042 133.954 16.5475L133.439 7.63544L137.128 7.46406L137.042 5.66451L133.439 5.8359L133.354 1.63696L130.952 1.72266L129.922 5.92159L127.521 6.35005L127.606 7.89252L129.837 7.80683L130.18 14.2338C130.266 15.4335 130.266 16.119 130.266 16.9759C130.351 19.6324 131.895 20.7464 134.297 20.575C136.184 20.4893 137.471 19.7181 138.157 18.4327L137.385 17.6615C136.785 18.2613 136.27 18.5184 135.67 18.6041Z" fill="white"/>
<path d="M151.624 19.2037C151.023 19.2037 150.766 18.7752 150.766 17.8326L151.109 11.2343C151.366 7.29243 149.908 5.74996 146.391 5.49289C142.703 5.3215 140.301 6.69258 139.786 9.09198C139.872 9.9489 140.472 10.4631 141.416 10.5487C142.445 10.6344 143.132 10.0346 143.389 8.57782L143.818 6.94966C144.333 6.86397 144.676 6.86397 145.105 6.94966C147.077 7.03535 147.678 7.80659 147.506 10.6344L147.421 11.4914C146.391 11.6628 145.276 11.9198 144.504 12.1769C140.044 13.3766 138.928 14.7477 138.843 16.6329C138.671 19.118 140.387 20.5748 142.617 20.6605C144.504 20.7462 145.533 20.0606 147.163 18.6039C147.421 20.0606 148.45 20.9176 149.994 21.0032C151.452 21.0889 152.396 20.6605 153.253 19.2894L152.739 18.6039C152.396 19.0323 152.053 19.2037 151.624 19.2037ZM144.59 18.5182C143.389 18.4325 142.531 17.7469 142.617 16.2045C142.703 15.0905 143.303 13.9765 145.448 13.2909C145.962 13.1195 146.734 12.8624 147.592 12.6911L147.335 17.4042C145.962 18.2611 145.362 18.5182 144.59 18.5182Z" fill="white"/>
<path d="M170.41 9.52049L170.066 9.17772L164.834 8.83494L164.662 9.94895L166.464 10.7202L164.748 19.1181C163.461 19.8893 162.175 20.3178 161.06 20.1464C159.773 19.8893 159.173 19.0324 159.687 16.8044L160.631 11.9199L161.574 7.80663L161.231 7.46386L155.913 7.0354L155.656 8.1494L157.457 8.92064L155.999 16.2045C155.141 20.0607 156.513 21.8602 158.915 22.2887C160.802 22.6315 162.689 22.1173 164.491 20.5748L164.233 23.2313L169.38 24.0025L169.638 22.8028L167.922 22.0316L169.552 13.7194L170.41 9.52049Z" fill="white"/>
<path d="M186.279 15.7768C186.365 14.6628 185.593 13.8059 184.564 13.4631C183.02 12.949 180.961 13.7202 179.331 15.8625L180.189 12.2634L179.846 11.835L174.442 12.0063L174.099 13.0347L175.986 13.9773C175.643 15.177 175.471 15.8625 174.871 17.405L174.356 18.9474C173.927 20.1471 173.327 22.0324 172.812 23.4035L170.839 23.1464L170.41 24.3461L172.211 24.9459L175.814 26.1456L178.13 26.9169L178.559 25.7172L176.415 24.5175C176.843 23.0607 177.444 21.3468 177.873 20.1471L178.559 18.0905C179.503 16.7194 180.618 15.7768 181.99 15.2627L182.162 15.6054C182.505 16.4624 183.02 17.0622 183.792 17.3193C184.907 17.7477 185.85 17.1479 186.279 15.7768Z" fill="white"/>
<path d="M195.628 32.3129C195.114 32.57 194.771 32.6557 194.427 32.4843C193.913 32.2273 193.827 31.7988 194.17 30.8562L197.001 24.8577C198.716 21.3443 197.944 19.2877 194.771 17.7452C191.425 16.2027 188.68 16.5455 187.308 18.6021C187.051 19.4591 187.394 20.1446 188.251 20.5731C189.109 21.0015 190.053 20.7444 190.825 19.4591L191.854 18.088C192.369 18.2594 192.712 18.3451 193.055 18.5164C194.856 19.3734 195.114 20.316 193.913 22.8868L193.57 23.658C192.54 23.4866 191.425 23.3152 190.653 23.1438C186.107 22.544 184.563 23.4009 183.705 25.1148C182.676 27.3428 183.619 29.3137 185.678 30.2563C187.394 31.1133 188.68 30.7705 190.653 29.9992C190.31 31.456 190.911 32.6557 192.369 33.3413C193.655 33.9411 194.771 33.9411 195.972 32.9128L195.628 32.3129ZM188.166 29.1423C187.051 28.6282 186.536 27.5999 187.222 26.2288C187.737 25.2005 188.766 24.4292 190.911 24.6006C191.511 24.6006 192.283 24.6863 193.141 24.8577L191.082 29.1423C189.452 29.4851 188.852 29.4851 188.166 29.1423Z" fill="white"/>
<path d="M213.213 34.7992C215.272 31.7143 214.929 29.4863 212.699 28.0295C211.155 27.0012 209.268 26.8298 206.952 27.4297L208.067 25.373L207.809 24.8589L202.491 23.6592L201.891 24.6018L203.52 25.9729C202.92 27.0012 202.491 27.6867 201.547 29.0578L200.69 30.3432C200.003 31.4572 198.888 32.9997 198.031 34.2851L196.229 33.5138L195.629 34.7135L197.173 35.7418L200.347 37.7985L201.805 38.7411L202.491 37.7128L201.204 36.4274C201.976 35.142 203.006 33.5138 203.778 32.4855L206.265 28.715C207.809 28.5437 209.01 28.715 209.954 29.3149C211.24 30.1718 211.326 31.1144 209.954 33.0854L208.41 35.4848C207.638 36.5988 206.608 38.2269 205.751 39.4266L203.949 38.7411L203.349 39.6837L206.094 41.4832L208.152 42.7686L209.611 43.7112L210.211 42.7686L208.924 41.4832C209.696 40.1979 210.726 38.6554 211.498 37.5414L213.213 34.7992Z" fill="white"/>
<path d="M226.337 33.7737L224.45 32.2312L220.933 34.6306L218.875 33.3452L217.845 34.5449L219.561 35.916L215.444 40.8862C214.672 41.8288 214.243 42.3429 213.642 43.0285C211.927 45.0851 212.356 46.8846 214.157 48.4271C215.615 49.6268 217.073 49.8839 218.446 49.4554L218.36 48.4271C217.502 48.4271 216.902 48.2557 216.473 47.8272C215.701 47.2274 215.615 46.2848 216.645 45.1708L222.306 38.3154L225.137 40.6291L226.337 39.258L223.593 36.9443L226.337 33.7737Z" fill="white"/>
<path d="M252.071 81.1596L249.669 82.3593C248.468 82.9591 246.752 83.816 245.466 84.4159L244.265 82.8734L243.15 83.3876L244.008 85.0157L245.723 88.3577L246.495 89.9002L247.61 89.386L247.096 87.6722C248.382 86.9867 250.098 86.1297 251.299 85.5299L254.129 84.0731C254.558 83.9017 254.987 83.6446 255.33 83.3876C256.788 83.9874 257.732 84.673 258.161 85.7013C258.847 87.0724 258.504 87.9293 256.188 89.0433L253.7 90.243C252.5 90.8428 250.784 91.6997 249.497 92.2996L248.296 90.8428L247.181 91.357L248.725 94.4419L249.669 96.4128L250.441 97.9553L251.556 97.4412L251.041 95.6416C252.328 94.9561 254.044 94.0991 255.244 93.4993L258.161 92.0425C261.421 90.4144 262.278 88.4434 261.077 85.9583C260.22 84.3302 258.761 83.1305 256.274 82.5306C257.732 81.1596 257.904 79.7028 257.046 77.9032C256.188 76.2751 254.558 75.1611 252.414 74.6469L254.387 73.3615L254.472 72.7617L250.527 69.334L249.497 69.8481L250.184 71.9048C249.154 72.5046 248.468 72.8474 246.924 73.6186L245.466 74.3041C244.265 74.904 242.549 75.7609 241.263 76.3608L240.062 74.8183L239.032 75.3325L242.378 82.0165L243.493 81.4166L243.064 79.7028C244.351 79.0172 246.066 78.1603 247.267 77.5605L251.299 75.5038C252.585 76.018 253.615 76.7035 254.129 77.7319C254.73 79.1029 254.301 80.0456 252.071 81.1596Z" fill="white"/>
<path d="M267.168 108.326L268.283 107.983L267.94 106.954L267.425 105.241L266.567 102.498L265.452 102.841L265.795 105.155L255.931 104.812L263.737 98.8137L264.766 100.956L265.967 100.528L265.109 97.7854L263.908 93.9292L263.651 92.9866L262.536 93.3293L262.793 94.8718L251.213 104.555H251.041C249.412 104.469 247.868 104.127 246.581 103.441L246.753 103.184C247.439 102.07 247.439 101.299 247.267 100.528C246.924 99.4992 246.152 98.728 245.037 98.8994C243.836 99.3278 243.407 100.87 243.922 102.327C244.694 104.812 247.267 105.669 252.242 105.926L266.653 106.783L267.168 108.326Z" fill="white"/>
<path d="M257.732 133.605L257.903 135.318L259.104 135.233L259.276 133.433C260.734 133.262 262.621 133.09 263.994 132.919L267.167 132.662C267.682 132.576 268.111 132.576 268.454 132.491C269.569 133.519 270.17 134.547 270.255 135.661C270.341 137.204 269.741 137.889 267.167 138.061L264.422 138.318C263.05 138.489 261.163 138.575 259.705 138.746L259.104 136.947L257.903 137.032L258.161 139.774L258.418 142.517L258.589 144.316L259.79 144.23L260.048 142.345C261.506 142.174 263.393 142.002 264.766 141.831L268.025 141.574C271.714 141.231 273.172 139.689 272.914 136.947C272.743 135.147 271.799 133.519 269.741 132.062C271.542 131.377 272.314 130.006 272.142 128.035C271.971 126.235 270.856 124.607 269.054 123.236L271.37 122.807L271.628 122.293L269.312 117.409L268.197 117.494L268.111 119.637C266.91 119.808 266.138 119.894 264.508 120.065L262.964 120.237C261.677 120.322 259.79 120.494 258.246 120.665L257.646 118.78L256.445 118.865L256.788 122.807L256.96 124.521L257.131 126.235L258.332 126.149L258.504 124.35C259.962 124.178 261.935 124.007 263.221 123.836L267.682 123.407C268.711 124.35 269.398 125.378 269.483 126.578C269.655 128.12 268.883 128.806 266.395 128.977L263.65 129.234C262.278 129.406 260.391 129.491 258.933 129.663L258.418 127.777L257.217 127.863L257.389 129.92L257.732 133.605Z" fill="white"/>
<path d="M265.195 145.773C260.477 145.773 257.646 148.687 257.646 152.886C257.646 155.714 258.933 157.77 261.163 158.97L261.935 158.113C260.82 157.085 260.048 155.971 260.048 154.171C260.048 151.686 261.763 149.801 265.195 149.715V158.884C265.623 158.97 266.138 159.056 266.824 159.056C270.513 159.056 272.915 156.742 272.915 153.143C272.915 149.287 269.998 145.773 265.195 145.773ZM268.368 155.628C267.253 155.628 266.653 155.285 266.653 153.829V149.715C270.256 149.972 271.456 151.515 271.456 152.972C271.456 154.428 270.17 155.628 268.368 155.628Z" fill="white"/>
<path d="M272.914 166.08L271.027 161.024H269.912L269.655 163.167C268.454 163.252 267.682 163.252 265.966 163.252H264.422C263.135 163.252 261.162 163.252 259.704 163.167L259.361 161.196H258.16V163.081V166.852V168.565H259.361L259.704 166.766C261.248 166.766 263.135 166.68 264.422 166.68H268.882C269.912 167.88 270.427 168.994 270.427 170.108C270.427 171.565 269.654 172.164 267.253 172.164H264.422C263.05 172.164 261.162 172.164 259.704 172.079L259.361 170.194H258.16V172.079V175.849V177.649H259.361L259.704 175.849C261.162 175.849 263.05 175.849 264.422 175.849H267.596C271.284 175.849 273 174.392 273 171.736C273 169.936 272.142 168.137 270.341 166.594L272.657 166.423L272.914 166.08Z" fill="white"/>
<path d="M263.221 184.676H268.196L272.485 184.847L272.828 184.418L272.228 179.191H271.027L270.598 181.162L263.135 181.076C259.19 180.991 257.731 182.619 257.731 185.19C257.731 187.075 258.675 188.874 260.562 190.331L257.903 190.588L258.16 195.73H259.361L259.704 193.93H268.196L272.485 194.016L272.828 193.588L272.142 188.446H271.027L270.598 190.331L261.849 190.16C260.819 189.132 260.133 187.846 260.133 186.732C260.133 185.361 260.905 184.676 263.221 184.676Z" fill="white"/>
<path d="M243.236 191.448V179.194V166.083V142.946C243.15 141.746 243.15 140.461 243.064 139.261C243.064 139.175 243.064 139.004 243.064 138.833C243.064 138.49 242.979 138.061 242.979 137.719C242.979 137.29 242.893 136.776 242.893 136.348C242.893 136.005 242.807 135.576 242.807 135.234C242.807 134.805 242.721 134.377 242.721 133.862C242.721 133.52 242.635 133.091 242.635 132.748C242.55 132.32 242.55 131.892 242.464 131.463C242.464 131.12 242.378 130.692 242.292 130.349C242.207 129.921 242.207 129.492 242.121 129.064C242.035 128.721 242.035 128.292 241.949 127.95C241.863 127.521 241.778 127.093 241.692 126.664C241.606 126.321 241.52 125.893 241.52 125.55C241.435 125.122 241.349 124.693 241.263 124.265C241.177 123.922 241.091 123.494 241.006 123.151C240.92 122.722 240.834 122.294 240.748 121.865C240.663 121.523 240.577 121.094 240.491 120.751C240.405 120.323 240.319 119.895 240.148 119.466C240.062 119.123 239.976 118.695 239.891 118.352C239.805 117.924 239.633 117.495 239.547 117.067C239.462 116.724 239.376 116.295 239.204 115.953C239.118 115.524 238.947 115.096 238.861 114.753C238.775 114.41 238.604 114.067 238.518 113.639C238.432 113.211 238.261 112.868 238.089 112.439C238.003 112.097 237.832 111.754 237.746 111.325C237.574 110.897 237.489 110.554 237.317 110.126C237.231 109.783 237.06 109.44 236.974 109.012C236.803 108.583 236.631 108.24 236.545 107.812C236.374 107.469 236.288 107.126 236.116 106.784C235.945 106.355 235.773 106.012 235.602 105.584C235.43 105.241 235.344 104.898 235.173 104.556C235.001 104.127 234.83 103.784 234.658 103.356C234.486 103.013 234.315 102.67 234.229 102.328C234.058 101.899 233.886 101.556 233.714 101.128C233.543 100.785 233.371 100.442 233.2 100.1C233.028 99.7568 232.857 99.3283 232.599 98.9856C232.428 98.6428 232.256 98.3 232.085 97.9572C231.913 97.6145 231.656 97.186 231.484 96.8432C231.313 96.5005 231.141 96.1577 230.97 95.8149C230.798 95.4722 230.541 95.0437 230.369 94.7009C230.198 94.3582 230.026 94.0154 229.854 93.6726C229.597 93.3298 229.426 92.9014 229.168 92.5586C228.997 92.2158 228.825 91.8731 228.568 91.616C228.31 91.2732 228.139 90.8448 227.882 90.502C227.71 90.1592 227.453 89.9022 227.281 89.5594C227.024 89.2166 226.852 88.8738 226.595 88.4454C226.338 88.1026 226.166 87.7598 225.994 87.5028C225.737 87.16 225.48 86.8172 225.222 86.3888C225.051 86.046 224.794 85.7889 224.622 85.4461C224.365 85.1034 224.107 84.7606 223.85 84.4178C223.593 84.0751 223.421 83.818 223.164 83.4752C222.906 83.1324 222.649 82.7897 222.392 82.4469C222.134 82.1898 221.963 81.847 221.706 81.59C221.448 81.2472 221.191 80.9044 220.848 80.5617C220.59 80.3046 220.419 79.9618 220.162 79.7047C219.904 79.362 219.561 79.0192 219.304 78.6764C219.046 78.4193 218.875 78.0766 218.618 77.8195C218.274 77.4767 218.017 77.134 217.674 76.7912C217.417 76.5341 217.245 76.277 216.988 76.02C216.645 75.6772 216.301 75.3344 215.958 74.9059C215.701 74.6489 215.529 74.3918 215.272 74.2204C214.929 73.7919 214.5 73.4492 214.157 73.0207C213.985 72.8493 213.814 72.5923 213.557 72.4209C212.956 71.821 212.356 71.2212 211.755 70.707C192.369 52.026 166.893 41.7429 140.045 41.7429C113.11 41.7429 87.6341 52.026 68.2482 70.707C67.562 71.2212 66.9615 71.7353 66.3611 72.3352C66.1895 72.5922 65.9322 72.7636 65.7606 73.0207C65.4175 73.3635 64.9886 73.7919 64.6455 74.1347C64.3882 74.3918 64.2166 74.6489 63.9593 74.9059C63.6162 75.2487 63.273 75.5915 62.9299 75.9343C62.6726 76.1913 62.501 76.5341 62.2437 76.7912C61.9006 77.134 61.6433 77.4767 61.3859 77.8195C61.1286 78.0766 60.8713 78.4193 60.6139 78.6764C60.3566 79.0192 60.0135 79.362 59.7561 79.7047C59.4988 79.9618 59.2415 80.3046 59.0699 80.5617C58.8126 80.9044 58.4695 81.2472 58.2121 81.59C58.0406 81.9327 57.7832 82.1898 57.5259 82.5326C57.2686 82.8754 57.0112 83.2181 56.7539 83.5609C56.4966 83.9037 56.325 84.1607 56.0677 84.5035C55.8103 84.8463 55.553 85.1891 55.2957 85.5318C55.1241 85.8746 54.8668 86.1317 54.6952 86.4744C54.4379 86.8172 54.1806 87.16 54.009 87.5028C53.8374 87.8455 53.5801 88.1883 53.4085 88.4454C53.1512 88.7881 52.9797 89.1309 52.7223 89.4737C52.5508 89.8165 52.2934 90.1592 52.1219 90.502C51.7788 90.9305 51.5214 91.2732 51.3499 91.616C51.1783 91.9588 50.921 92.3015 50.7494 92.6443C50.4921 92.9871 50.3205 93.3299 50.149 93.7583C49.9774 94.1011 49.8059 94.4439 49.5485 94.7866C49.377 95.1294 49.1196 95.5579 48.9481 95.9006C48.7765 96.2434 48.605 96.5862 48.3476 96.9289C48.1761 97.2717 48.0045 97.7002 47.7472 98.0429C47.5756 98.3857 47.4041 98.7285 47.2325 99.0713C47.061 99.414 46.8894 99.8425 46.7178 100.185C46.5463 100.528 46.3747 100.871 46.2032 101.214C46.0316 101.556 45.8601 101.985 45.6885 102.328C45.5169 102.67 45.3454 103.013 45.2596 103.442C45.0881 103.784 44.9165 104.213 44.7449 104.556C44.5734 104.898 44.4018 105.241 44.316 105.67C44.1445 106.098 43.9729 106.441 43.8872 106.869C43.7156 107.212 43.6298 107.555 43.4583 107.983C43.2009 108.326 43.1152 108.669 42.9436 109.097C42.8578 109.44 42.6863 109.869 42.5147 110.211C42.3431 110.64 42.2574 110.983 42.0858 111.411C42 111.754 41.8285 112.182 41.7427 112.525C41.6569 112.953 41.4854 113.296 41.3996 113.725C41.3138 114.067 41.1423 114.496 41.0565 114.839C40.9707 115.267 40.7991 115.61 40.7134 116.038C40.6276 116.381 40.456 116.81 40.3702 117.152C40.2845 117.581 40.1129 117.924 40.0271 118.352C39.9414 118.695 39.8556 119.123 39.7698 119.466C39.684 119.895 39.5982 120.323 39.4267 120.666C39.3409 121.009 39.2551 121.437 39.1694 121.78C39.0836 122.208 38.9978 122.637 38.912 122.979C38.8262 123.322 38.7405 123.751 38.6547 124.093C38.5689 124.522 38.4831 124.95 38.3973 125.293C38.3116 125.722 38.2258 126.064 38.14 126.493C38.0542 126.921 37.9685 127.35 37.9685 127.778C37.8827 128.121 37.8827 128.55 37.7969 128.978C37.7111 129.406 37.7111 129.835 37.6253 130.263C37.5396 130.692 37.5396 131.035 37.4538 131.463C37.368 131.892 37.368 132.32 37.2822 132.748C37.1965 133.177 37.1965 133.52 37.1107 133.948C37.0249 134.377 37.0249 134.805 37.0249 135.234C37.0249 135.576 36.9391 136.005 36.9391 136.433C36.8533 136.862 36.8533 137.29 36.8533 137.719C36.8533 138.147 36.7676 138.49 36.7676 138.918C36.7676 139.004 36.7676 139.175 36.7676 139.261C36.6818 204.645 36.6818 270.028 36.596 335.497H39.2551H44.5734H57.1828H62.9299H77.3407H84.1172H195.629H202.32H216.73H222.478H235.173H240.491H243.15V191.448H243.236ZM166.979 139.175C165.607 125.379 154.026 114.753 139.873 114.753C125.72 114.753 114.14 125.379 112.767 139.175H103.332C104.961 120.323 120.659 105.841 139.873 105.841C159.002 105.841 174.699 120.323 176.415 139.175H166.979ZM163.291 139.175H116.456C117.828 127.435 127.778 118.438 139.873 118.438C151.968 118.438 161.918 127.435 163.291 139.175ZM180.103 139.175C178.387 118.266 161.06 102.156 139.873 102.156C118.686 102.156 101.359 118.266 99.643 139.175H91.0652C92.9523 113.725 114.054 94.0154 139.873 94.0154C165.692 94.0154 186.794 113.725 188.681 139.175H180.103ZM40.3702 139.175C40.3702 139.09 40.3702 139.004 40.3702 138.918C40.3702 138.49 40.456 138.147 40.456 137.719C40.456 137.29 40.5418 136.947 40.5418 136.519C40.5418 136.176 40.6276 135.748 40.6276 135.405C40.7134 134.976 40.7134 134.634 40.7134 134.205C40.7991 133.862 40.7991 133.434 40.8849 133.091C40.9707 132.663 40.9707 132.32 41.0565 131.892C41.1423 131.463 41.1423 131.12 41.228 130.778C41.3138 130.349 41.3138 130.006 41.3996 129.578C41.4854 129.235 41.4854 128.807 41.5711 128.464C41.6569 128.035 41.7427 127.693 41.7427 127.264C41.8285 126.921 41.9143 126.493 41.9143 126.15C42 125.722 42.0858 125.379 42.1716 124.95C42.2574 124.608 42.3432 124.179 42.4289 123.836C42.5147 123.408 42.6005 123.065 42.6863 122.637C42.772 122.294 42.8578 121.865 42.9436 121.523C43.0294 121.094 43.1152 120.751 43.2009 120.323C43.2867 119.98 43.3725 119.552 43.4583 119.209C43.544 118.866 43.6298 118.438 43.8014 118.095C43.8872 117.752 43.9729 117.324 44.1445 116.981C44.2303 116.638 44.4018 116.21 44.4876 115.867C44.5734 115.524 44.7449 115.181 44.8307 114.753C44.9165 114.41 45.0881 113.982 45.1738 113.639C45.2596 113.296 45.4312 112.953 45.5169 112.611C45.6027 112.268 45.7743 111.839 45.9458 111.497C46.0316 111.154 46.2032 110.811 46.3747 110.468C46.5463 110.126 46.6321 109.697 46.8036 109.354C46.9752 109.012 47.061 108.669 47.2325 108.326C47.4041 107.983 47.5756 107.555 47.6614 107.212C47.833 106.869 47.9187 106.527 48.0903 106.184C48.2619 105.841 48.4334 105.498 48.605 105.07C48.7765 104.727 48.9481 104.384 49.0339 104.041C49.2054 103.699 49.377 103.27 49.5485 102.927C49.7201 102.585 49.8916 102.242 50.0632 101.899C50.2348 101.556 50.4063 101.214 50.5779 100.871C50.7494 100.528 50.921 100.185 51.0925 99.8425C51.2641 99.4997 51.4356 99.1569 51.693 98.8142C51.8645 98.4714 52.0361 98.1286 52.2077 97.7859C52.3792 97.4431 52.5508 97.1003 52.8081 96.7576C52.9797 96.4148 53.1512 96.072 53.4085 95.7292C53.5801 95.4722 53.7517 95.1294 53.9232 94.8723L93.9817 117.409C90.2932 124.008 88.063 131.377 87.4625 139.347H40.3702V139.175ZM141.674 90.4163V45.342C158.144 45.6848 174.013 49.9694 188.08 57.7674L164.663 96.5005C157.801 92.8157 149.995 90.6734 141.674 90.4163ZM137.986 90.4163C129.665 90.6734 121.86 92.9014 114.997 96.5005L91.5799 57.7674C105.648 49.9694 121.516 45.6848 137.986 45.342V90.4163ZM192.369 139.175C191.769 131.206 189.539 123.751 185.85 117.238L225.909 94.6152C226.08 94.958 226.252 95.2151 226.423 95.4722C226.595 95.8149 226.766 96.1577 227.024 96.4148C227.195 96.7576 227.367 97.1003 227.624 97.4431C227.796 97.7859 227.967 98.1286 228.139 98.4714C228.31 98.8142 228.482 99.1569 228.654 99.4997C228.825 99.8425 228.997 100.185 229.168 100.528C229.34 100.871 229.511 101.214 229.683 101.642C229.854 101.985 230.026 102.328 230.198 102.67C230.369 103.013 230.541 103.442 230.712 103.784C230.884 104.127 231.055 104.47 231.141 104.813C231.313 105.155 231.484 105.584 231.656 105.927C231.827 106.269 231.913 106.612 232.085 106.955C232.256 107.298 232.342 107.726 232.514 108.069C232.685 108.412 232.771 108.755 232.942 109.097C233.114 109.526 233.2 109.869 233.371 110.211C233.457 110.554 233.629 110.897 233.714 111.24C233.886 111.582 233.972 112.011 234.143 112.354C234.229 112.696 234.401 113.039 234.486 113.382C234.572 113.81 234.744 114.153 234.83 114.582C234.915 114.924 235.087 115.267 235.173 115.61C235.258 115.953 235.43 116.381 235.516 116.81C235.602 117.152 235.687 117.495 235.859 117.838C235.945 118.266 236.116 118.609 236.202 119.038C236.288 119.38 236.374 119.723 236.459 120.152C236.545 120.58 236.631 120.923 236.717 121.351C236.803 121.694 236.888 122.037 236.974 122.465C237.06 122.894 237.146 123.237 237.231 123.665C237.317 124.008 237.403 124.351 237.489 124.779C237.575 125.207 237.66 125.636 237.746 125.979C237.832 126.321 237.918 126.664 237.918 127.093C238.003 127.521 238.089 127.95 238.175 128.292C238.261 128.635 238.261 128.978 238.347 129.406C238.432 129.835 238.432 130.263 238.518 130.606C238.604 130.949 238.604 131.292 238.69 131.72C238.775 132.149 238.775 132.577 238.861 133.006C238.861 133.348 238.947 133.691 238.947 134.12C239.033 134.548 239.033 134.976 239.033 135.405C239.033 135.748 239.119 136.09 239.119 136.519C239.204 136.947 239.204 137.376 239.204 137.804C239.204 138.147 239.29 138.49 239.29 138.918C239.29 139.004 239.29 139.09 239.29 139.175H192.369ZM210.726 74.9059C210.897 75.0773 211.155 75.3344 211.326 75.5058C211.669 75.8486 212.013 76.277 212.356 76.6198C212.613 76.8769 212.785 77.134 213.042 77.3053C213.385 77.6481 213.642 77.9909 213.985 78.3336C214.243 78.5907 214.414 78.8478 214.672 79.1049C214.929 79.4477 215.272 79.7904 215.529 80.1332C215.787 80.3903 215.958 80.6474 216.216 80.9901C216.473 81.3329 216.816 81.6757 217.073 82.0184C217.331 82.2755 217.502 82.6183 217.76 82.8754C218.017 83.2181 218.274 83.5609 218.532 83.9037C218.789 84.1608 218.961 84.5035 219.218 84.7606C219.475 85.1034 219.733 85.4461 219.99 85.7889C220.162 86.1317 220.419 86.3888 220.676 86.6458C220.934 86.9886 221.191 87.3314 221.362 87.6741C221.62 88.0169 221.791 88.274 221.963 88.6168C222.22 88.9595 222.478 89.3023 222.649 89.6451C222.821 89.9878 223.078 90.2449 223.25 90.5877C223.507 90.9305 223.678 91.2732 223.936 91.616L183.877 114.153C179.674 107.812 174.184 102.413 167.751 98.3857L191.168 59.6527C197.516 63.5088 203.521 68.0505 208.925 73.2778C209.611 73.7919 210.211 74.3918 210.726 74.9059ZM88.4061 59.6527L111.824 98.3857C105.39 102.413 99.9004 107.812 95.783 114.153L55.7246 91.616C55.8961 91.2732 56.1535 90.9305 56.4108 90.5877C56.5823 90.2449 56.8397 89.9878 57.0112 89.6451C57.2686 89.3023 57.4401 88.9595 57.6975 88.6168C57.869 88.274 58.1264 88.0169 58.2979 87.6741C58.5552 87.3314 58.8126 86.9886 58.9841 86.6458C59.2415 86.3031 59.413 86.046 59.6704 85.7032C60.0135 85.3604 60.2708 85.0177 60.5281 84.7606C60.7855 84.5035 60.957 84.1608 61.2144 83.9037C61.4717 83.5609 61.729 83.2181 61.9864 82.8754C62.2437 82.6183 62.4153 82.2755 62.6726 82.0184C62.9299 81.6757 63.1873 81.3329 63.5304 80.9901C63.7877 80.733 63.9593 80.476 64.2166 80.1332C64.4739 79.7904 64.8171 79.4477 65.0744 79.1049C65.2459 78.9335 65.5033 78.6764 65.6748 78.4193C66.018 78.0766 66.2753 77.7338 66.6184 77.391C66.8757 77.134 67.0473 76.8769 67.3046 76.7055C67.6477 76.3627 67.9909 75.9343 68.334 75.5915C68.5913 75.3344 68.7629 75.163 69.0202 74.9059C69.6206 74.3061 70.1353 73.792 70.7358 73.1921C76.1398 68.0505 82.0585 63.4231 88.4061 59.6527ZM88.835 331.727C103.246 321.358 120.83 315.188 139.873 315.188C158.916 315.188 176.586 321.358 190.911 331.727H88.835ZM198.117 331.727C182.248 318.701 162.004 310.818 139.873 310.818C117.742 310.818 97.4128 318.701 81.6296 331.727H66.3611C84.975 312.446 111.052 300.449 139.873 300.449C168.695 300.449 194.771 312.446 213.385 331.727H198.117ZM219.39 331.727C199.832 309.875 171.439 295.993 139.873 295.993C108.307 295.993 79.914 309.789 60.3566 331.727H47.3183C68.6771 303.877 102.216 285.967 139.873 285.967C177.53 285.967 211.155 303.962 232.428 331.727H219.39ZM142.618 177.48V199.332L143.047 199.503C143.819 199.76 144.677 200.103 145.534 200.531C145.963 200.788 146.392 200.96 146.821 201.217C147.765 201.817 148.708 202.502 149.566 203.188C153.34 206.53 155.485 211.414 155.485 216.384V222.469L155.313 222.726C153.855 224.782 151.71 226.153 149.394 226.582C147.25 226.925 145.191 226.41 143.476 225.296C142.961 224.868 142.446 224.439 141.932 224.011C141.417 223.583 140.902 223.154 140.388 222.726C137.729 220.755 134.469 219.726 131.124 219.726C128.379 219.726 125.548 220.412 122.803 221.783C122.117 222.126 121.517 222.469 120.916 222.811C120.573 222.983 120.23 223.154 119.887 223.411V216.384C119.887 211.329 122.031 206.53 125.891 203.102C126.749 202.331 127.693 201.645 128.636 201.131C129.065 200.874 129.494 200.703 129.923 200.446C130.781 200.017 131.638 199.674 132.41 199.417L132.839 199.246V177.394H142.618V177.48ZM132.839 173.624V164.883C132.839 163.941 133.611 163.169 134.555 163.169H140.817C141.76 163.169 142.532 163.941 142.532 164.883V173.624H132.839ZM122.975 226.153C123.575 225.811 124.09 225.553 124.69 225.211C129.408 222.811 134.383 222.983 138.072 225.811C138.501 226.153 138.844 226.496 139.273 226.753L139.444 226.839C140.045 227.439 140.645 227.867 141.245 228.296C143.819 230.095 146.993 230.866 150.081 230.267C152.054 229.924 153.941 229.153 155.57 227.953V282.368C150.424 281.682 145.191 281.339 139.959 281.339C133.182 281.339 126.492 281.939 120.058 282.968V227.61C120.83 227.353 121.86 226.839 122.975 226.153ZM209.868 303.791V241.15C214.414 239.778 217.588 234.38 217.588 228.124C217.588 220.755 213.128 214.671 207.552 214.671C202.062 214.671 197.516 220.669 197.516 228.124C197.516 234.723 201.033 240.293 205.922 241.321V301.134C198.374 296.25 190.311 292.137 181.733 288.966V232.752C188.852 231.809 194.085 225.811 194.085 218.612V195.475H165.607V218.612C165.607 225.811 170.925 231.723 177.959 232.752V287.595C171.954 285.624 165.778 284.082 159.43 283.053V216.384C159.43 210.814 157.286 205.501 153.426 201.474C152.654 200.703 151.882 200.017 151.024 199.332C149.566 198.218 148.022 197.275 146.478 196.589V164.883C146.478 161.798 143.905 159.227 140.817 159.227H134.555C131.467 159.227 128.893 161.713 128.893 164.883V196.589C127.349 197.275 125.805 198.218 124.433 199.332C123.575 200.017 122.803 200.703 122.031 201.474C118.171 205.501 116.027 210.814 116.027 216.384V283.824C110.88 284.853 105.819 286.224 100.93 287.938V225.553C105.733 224.525 109.25 220.241 109.25 215.356V195.561H105.39V215.356C105.39 218.184 103.589 220.669 100.93 221.612V195.561H96.9839V221.697C94.1532 220.926 92.1803 218.355 92.1803 215.356V195.561H88.3203V215.356C88.3203 220.498 92.0088 224.782 96.9839 225.639V289.394C87.4625 292.994 78.5416 297.792 70.3069 303.534V256.917C74.6816 252.29 77.3407 244.406 77.3407 235.665C77.3407 226.839 74.5958 218.869 70.1353 214.242C69.2775 213.385 68.334 212.614 67.3904 212.1L66.4468 211.5V306.362C57.0112 313.56 48.6907 322.129 41.7427 331.727H40.1987V182.279C44.7449 182.793 48.5192 184.85 52.2077 186.906C56.7539 189.477 61.1286 191.791 66.8757 191.791C72.6229 191.791 76.9976 189.391 81.5438 186.906C85.747 184.592 90.1217 182.193 95.5257 182.193C96.9839 182.193 98.4421 182.364 99.9861 182.707V178.937C98.5279 178.594 97.0697 178.508 95.5257 178.508C89.2639 178.508 84.5461 181.165 79.9998 183.65C75.6251 186.049 71.8509 188.192 66.8757 188.192C61.9006 188.192 58.1264 186.135 53.7517 183.65C49.6343 181.422 45.4312 179.022 40.1987 178.594V168.568C44.7449 169.082 48.5192 171.139 52.2077 173.195C56.7539 175.766 61.1286 178.08 66.8757 178.08C72.6229 178.08 76.9976 175.68 81.5438 173.195C85.747 170.882 90.1217 168.397 95.5257 168.397C96.9839 168.397 98.4421 168.568 99.9861 168.911V165.14C98.5279 164.797 97.0697 164.712 95.5257 164.712C89.2639 164.712 84.5461 167.368 79.9998 169.853C75.6251 172.253 71.8509 174.395 66.8757 174.395C61.9006 174.395 58.1264 172.338 53.7517 169.853C49.6343 167.54 45.4312 165.226 40.1987 164.797V155.371C44.7449 155.885 48.5192 157.942 52.2077 159.999C56.7539 162.569 61.1286 164.883 66.8757 164.883C72.6229 164.883 76.9976 162.484 81.5438 159.999C85.747 157.685 90.1217 155.2 95.5257 155.2C96.9839 155.2 98.4421 155.371 99.9861 155.714V151.944C98.5279 151.601 97.0697 151.515 95.5257 151.515C89.2639 151.515 84.5461 154.172 79.9998 156.657C75.6251 159.056 71.8509 161.198 66.8757 161.198C61.9006 161.198 58.1264 159.142 53.7517 156.657C49.6343 154.429 45.4312 152.029 40.1987 151.601V142.689H89.0065H101.359H114.483H165.349H178.473H190.74H239.547V163.855C228.482 162.569 219.904 153.743 218.875 142.689H215.186C216.216 155.8 226.423 166.169 239.547 167.54V176.966C221.448 175.338 207.295 160.856 206.265 142.689H202.491C203.606 162.827 219.304 179.022 239.462 180.651V189.22C214.672 187.335 195.457 167.454 194.342 142.689H190.654C191.769 169.511 212.699 191.019 239.462 192.905V331.47H237.918C230.198 320.929 220.676 311.503 209.868 303.791ZM207.638 237.722C204.293 237.722 201.548 233.437 201.548 228.21C201.548 222.983 204.293 218.612 207.638 218.612C210.983 218.612 213.728 222.897 213.728 228.21C213.728 233.437 210.983 237.722 207.638 237.722ZM179.846 229.067C174.099 229.067 169.381 224.354 169.381 218.612V199.332H190.225V218.612C190.311 224.439 185.593 229.067 179.846 229.067ZM70.3926 250.147V221.183C72.3655 225.125 73.5664 230.267 73.5664 235.665C73.4807 241.064 72.3655 246.205 70.3926 250.147Z" fill="white"/>
<path d="M111.822 75.3311C113.538 78.3303 116.626 79.9585 119.8 79.9585C121.344 79.9585 122.974 79.53 124.432 78.7588C128.807 76.188 130.351 70.5323 127.777 66.162C125.204 61.7917 119.542 60.2492 115.168 62.82C110.793 65.2194 109.249 70.8751 111.822 75.3311ZM117.055 65.9049C117.913 65.3908 118.856 65.1337 119.8 65.1337C120.314 65.1337 120.743 65.2194 121.258 65.3051C122.716 65.6478 123.917 66.5905 124.603 67.8758C126.147 70.5323 125.204 73.8743 122.545 75.4168C119.886 76.9592 116.54 76.0166 114.996 73.3602C113.452 70.7894 114.396 67.4474 117.055 65.9049Z" fill="white"/>
<path d="M167.492 66.079C164.919 61.7087 159.343 60.1662 154.883 62.737C150.508 65.3077 148.964 70.9635 151.537 75.3338C153.253 78.333 156.341 79.9612 159.515 79.9612C161.059 79.9612 162.689 79.5327 164.147 78.7615C168.521 76.105 170.065 70.4493 167.492 66.079ZM162.26 75.5052C159.601 77.0476 156.169 76.105 154.711 73.4485C153.167 70.7921 154.111 67.4501 156.77 65.9076C157.628 65.3934 158.571 65.1364 159.515 65.1364C160.029 65.1364 160.458 65.2221 160.973 65.3077C162.431 65.6505 163.632 66.5931 164.318 67.8785C165.862 70.535 164.919 73.9627 162.26 75.5052Z" fill="white"/>
<path d="M188.424 82.2735C184.049 84.8443 182.505 90.4143 185.079 94.8703C186.279 97.0126 188.338 98.5551 190.654 99.1549C191.426 99.3263 192.284 99.4977 193.056 99.4977C194.686 99.4977 196.23 99.0692 197.688 98.298C199.832 97.0983 201.376 95.0417 201.977 92.728C202.577 90.3286 202.32 87.8435 201.033 85.7012C198.46 81.2452 192.799 79.7027 188.424 82.2735ZM197.859 87.415C198.631 88.7004 198.803 90.1572 198.374 91.614C198.031 93.0707 197.087 94.2704 195.801 94.956C194.514 95.7272 193.056 95.8986 191.598 95.5558C190.139 95.1274 188.939 94.2704 188.252 92.985C186.708 90.3286 187.652 86.9866 190.311 85.4441C191.169 84.9299 192.112 84.6729 193.056 84.6729C194.943 84.6729 196.83 85.7012 197.859 87.415Z" fill="white"/>
<path d="M83.601 99.1549C84.373 99.3263 85.2308 99.4977 86.0028 99.4977C87.6326 99.4977 89.1766 99.0692 90.6348 98.298C95.0095 95.7272 96.5535 90.0715 93.9801 85.7012C92.7793 83.5589 90.7206 82.0164 88.4046 81.4166C86.0028 80.731 83.5152 81.0738 81.3707 82.3592C76.996 84.93 75.452 90.5857 78.0254 94.956C79.2263 97.0126 81.1992 98.4694 83.601 99.1549ZM83.1721 85.4441C84.0299 84.93 84.9734 84.6729 85.917 84.6729C86.4317 84.6729 86.8606 84.7586 87.3752 84.8443C88.8335 85.187 90.0343 86.1297 90.7206 87.415C91.4926 88.7004 91.6641 90.1572 91.321 91.614C90.9779 93.0708 90.0344 94.2705 88.7477 94.956C87.461 95.7272 86.0028 95.8986 84.5445 95.4702C83.0863 95.1274 81.8854 94.1848 81.1992 92.8994C79.6552 90.3286 80.513 86.9866 83.1721 85.4441Z" fill="white"/>
<path d="M74.2529 117.92C73.052 115.778 70.9933 114.235 68.6773 113.635C66.2755 113.035 63.788 113.293 61.6435 114.578C57.2688 117.149 55.7248 122.804 58.2982 127.175C59.4991 129.317 61.5577 130.86 63.8737 131.459C64.6457 131.631 65.5035 131.802 66.2755 131.802C67.9053 131.802 69.4493 131.374 70.9076 130.517C73.052 129.317 74.596 127.26 75.1965 124.947C75.7969 122.547 75.5396 120.062 74.2529 117.92ZM71.6796 123.918C71.2507 125.375 70.3929 126.575 69.1062 127.26C66.4471 128.803 63.016 127.86 61.5577 125.204C60.7857 123.918 60.6142 122.462 60.9573 121.005C61.3004 119.548 62.244 118.348 63.5306 117.663C64.3884 117.149 65.332 116.892 66.2755 116.892C66.7902 116.892 67.2191 116.977 67.7338 117.063C69.192 117.491 70.3929 118.348 71.0791 119.634C71.8511 121.005 72.0227 122.547 71.6796 123.918Z" fill="white"/>
<path d="M221.706 117.922C219.132 113.551 213.471 112.009 209.096 114.58C204.722 117.15 203.178 122.806 205.751 127.176C206.952 129.319 209.011 130.861 211.327 131.461C212.099 131.632 212.956 131.804 213.728 131.804C215.358 131.804 216.902 131.375 218.36 130.518C220.505 129.319 222.049 127.262 222.649 124.948C223.336 122.549 222.992 120.064 221.706 117.922ZM219.132 123.92C218.703 125.377 217.846 126.576 216.559 127.262C215.272 128.033 213.814 128.205 212.356 127.776C210.898 127.433 209.697 126.491 209.011 125.205C207.467 122.549 208.41 119.207 211.069 117.664C211.927 117.15 212.871 116.893 213.814 116.893C215.701 116.893 217.588 117.922 218.618 119.635C219.304 121.006 219.475 122.549 219.132 123.92Z" fill="white"/>
<path d="M5.11359 360.773H14.4634V389.48H20.9826V360.773H30.3324V354.604H5.11359V360.773Z" fill="white"/>
<path d="M28.7047 375.516C28.7047 377.744 29.1335 379.715 29.9055 381.429C30.6776 383.142 31.7069 384.599 33.0793 385.799C34.366 386.999 35.91 387.941 37.5398 388.541C39.1696 389.141 40.8852 389.484 42.515 389.484C44.4021 389.484 46.1176 389.141 47.6617 388.455C49.2914 387.77 50.5781 386.741 51.6075 385.456V389.398H58.0408V361.548H51.6075V365.233C50.5781 364.119 49.2914 363.176 47.7474 362.49C46.2034 361.805 44.4879 361.462 42.6007 361.462C40.7994 361.462 39.1696 361.805 37.454 362.405C35.8242 363.005 34.2802 363.947 32.9936 365.147C31.7069 366.347 30.6776 367.803 29.9055 369.517C29.1335 371.317 28.7047 373.288 28.7047 375.516ZM35.7385 372.259C36.1674 371.317 36.7678 370.46 37.5398 369.689C38.3118 369.003 39.1696 368.403 40.2847 367.975C41.3998 367.546 42.4292 367.375 43.6301 367.375C44.831 367.375 45.9461 367.546 46.9754 367.975C48.0048 368.403 48.8625 369.003 49.6346 369.689C50.4066 370.374 50.9212 371.317 51.3501 372.259C51.779 373.288 52.0363 374.316 52.0363 375.43C52.0363 376.544 51.779 377.658 51.3501 378.601C50.9212 379.543 50.3208 380.486 49.6346 381.171C48.8625 381.943 48.0048 382.543 46.9754 382.885C45.9461 383.314 44.831 383.485 43.6301 383.485C42.4292 383.485 41.3141 383.228 40.2847 382.885C39.2554 382.457 38.3118 381.857 37.5398 381.171C36.7678 380.4 36.1674 379.543 35.7385 378.601C35.3096 377.572 35.0522 376.544 35.0522 375.344C35.138 374.316 35.3096 373.288 35.7385 372.259Z" fill="white"/>
<path d="M78.1131 382.969C77.3411 383.655 76.1402 383.912 74.5104 383.912C72.9664 383.912 71.5939 383.569 70.4788 382.884C69.3637 382.198 68.4201 381.255 67.7339 380.056L61.7294 382.712C62.8445 384.855 64.3885 386.568 66.4472 387.682C68.5059 388.796 71.0792 389.396 74.1673 389.396C76.1402 389.396 77.8557 389.139 79.3139 388.539C80.7722 388.025 81.9731 387.254 82.9166 386.397C83.8602 385.54 84.5464 384.597 84.9753 383.569C85.4042 382.541 85.6615 381.598 85.6615 380.656C85.6615 379.284 85.4042 378.085 84.8038 377.142C84.2033 376.2 83.4313 375.428 82.4877 374.828C81.5442 374.229 80.4291 373.8 79.3139 373.372C78.1131 373.029 76.9979 372.772 75.8828 372.515C73.7384 372.086 72.1943 371.658 71.0792 371.315C69.9641 370.972 69.4494 370.287 69.4494 369.43C69.4494 368.659 69.7926 367.973 70.5646 367.459C71.2508 366.859 72.4517 366.602 73.9957 366.602C75.3681 366.602 76.4833 366.859 77.5126 367.459C78.5419 367.973 79.314 368.744 79.9144 369.687L85.4042 367.116C84.2891 365.317 82.8309 363.946 80.9437 362.917C79.0566 361.889 76.7406 361.375 73.9099 361.375C72.2801 361.375 70.7361 361.632 69.3637 362.06C67.9912 362.489 66.8761 363.089 65.8468 363.86C64.9032 364.631 64.1312 365.488 63.6165 366.516C63.1019 367.545 62.8445 368.573 62.8445 369.601C62.8445 370.972 63.1019 372.172 63.7023 373.115C64.3027 374.057 64.989 374.828 65.9325 375.428C66.8761 376.028 67.9054 376.457 69.1063 376.799C70.2215 377.142 71.4223 377.399 72.709 377.656C73.5668 377.828 74.4246 377.999 75.1966 378.17C75.9686 378.342 76.6548 378.513 77.2553 378.77C77.8557 379.027 78.2846 379.284 78.7135 379.542C79.0566 379.884 79.3139 380.227 79.3139 380.741C79.3139 381.598 78.8851 382.369 78.1131 382.969Z" fill="white"/>
<path d="M136.87 365.318C135.583 364.119 134.039 363.176 132.323 362.49C130.522 361.805 128.635 361.462 126.576 361.462C124.517 361.462 122.63 361.805 120.829 362.576C119.028 363.347 117.484 364.29 116.197 365.575C114.91 366.861 113.881 368.318 113.109 370.031C112.337 371.745 111.994 373.63 111.994 375.601C111.994 377.572 112.337 379.372 113.023 381.086C113.709 382.8 114.739 384.256 116.025 385.542C117.312 386.827 118.856 387.77 120.657 388.541C122.459 389.227 124.517 389.655 126.662 389.655C129.836 389.655 132.495 388.969 134.639 387.598C136.784 386.227 138.499 384.342 139.7 382.114L134.382 379.029C133.696 380.486 132.666 381.771 131.38 382.628C130.007 383.485 128.463 383.999 126.662 383.999C124.346 383.999 122.459 383.399 121.001 382.2C119.457 381 118.513 379.372 118.084 377.401H140.901V375.087C140.901 373.116 140.558 371.317 139.786 369.689C139.1 367.975 138.156 366.518 136.87 365.318ZM118.427 371.831C119.028 370.46 119.971 369.26 121.429 368.403C122.888 367.546 124.517 367.118 126.49 367.118C128.549 367.118 130.179 367.546 131.551 368.318C132.924 369.089 133.867 370.288 134.296 371.831H118.427Z" fill="white"/>
<path d="M145.876 389.48H152.395V365.229L162.86 379.454L173.583 365.058V389.48H180.102V354.604H173.926L162.946 369.257L152.31 354.604H145.876V389.48Z" fill="white"/>
<path d="M189.281 385.885C190.568 387.084 192.112 388.027 193.742 388.627C195.371 389.227 197.087 389.569 198.717 389.569C200.604 389.569 202.319 389.227 203.863 388.541C205.493 387.855 206.78 386.827 207.809 385.542V389.484H214.243V361.548H207.809V365.233C206.78 364.119 205.493 363.176 203.949 362.49C202.405 361.805 200.69 361.462 198.803 361.462C197.087 361.462 195.371 361.805 193.656 362.405C192.026 363.005 190.482 363.947 189.195 365.147C187.909 366.347 186.879 367.803 186.107 369.517C185.335 371.231 184.906 373.202 184.906 375.516C184.906 377.744 185.335 379.715 186.107 381.429C186.965 383.228 187.994 384.685 189.281 385.885ZM191.94 372.259C192.369 371.317 192.97 370.46 193.742 369.689C194.514 369.003 195.371 368.403 196.487 367.975C197.602 367.546 198.631 367.375 199.832 367.375C201.033 367.375 202.148 367.546 203.177 367.975C204.207 368.403 205.064 369.003 205.836 369.689C206.608 370.374 207.123 371.317 207.552 372.259C207.981 373.288 208.238 374.316 208.238 375.43C208.238 376.544 207.981 377.658 207.552 378.601C207.123 379.543 206.523 380.486 205.836 381.171C205.064 381.943 204.207 382.543 203.177 382.885C202.148 383.314 201.033 383.485 199.832 383.485C198.631 383.485 197.516 383.228 196.487 382.885C195.457 382.457 194.514 381.857 193.742 381.171C192.97 380.4 192.369 379.543 191.94 378.601C191.511 377.572 191.254 376.544 191.254 375.344C191.34 374.316 191.511 373.288 191.94 372.259Z" fill="white"/>
<path d="M246.324 385.539C247.611 386.824 249.155 387.767 250.956 388.538C252.758 389.224 254.816 389.652 256.961 389.652C260.135 389.652 262.794 388.967 264.938 387.596C267.083 386.225 268.798 384.339 269.999 382.111L264.681 379.026C263.995 380.483 262.965 381.769 261.679 382.626C260.306 383.482 258.762 383.997 256.961 383.997C254.645 383.997 252.758 383.397 251.299 382.197C249.841 380.997 248.812 379.369 248.383 377.398H271.2V375.085C271.2 373.114 270.857 371.314 270.085 369.686C269.399 368.058 268.369 366.601 267.083 365.401C265.796 364.202 264.252 363.259 262.536 362.573C260.735 361.888 258.848 361.545 256.789 361.545C254.731 361.545 252.843 361.888 251.042 362.659C249.241 363.43 247.697 364.373 246.41 365.658C245.123 366.944 244.094 368.401 243.322 370.114C242.55 371.828 242.207 373.714 242.207 375.684C242.207 377.655 242.55 379.455 243.236 381.169C244.008 382.797 245.038 384.254 246.324 385.539ZM251.728 368.486C253.187 367.629 254.816 367.201 256.789 367.201C258.848 367.201 260.478 367.629 261.85 368.401C263.223 369.172 264.166 370.371 264.595 371.914H248.726C249.327 370.457 250.356 369.343 251.728 368.486Z" fill="white"/>
<path d="M95.2668 361.461H88.9192V367.288H95.2668V377.828C95.2668 380.056 95.4383 381.942 95.7814 383.398C96.1245 384.855 96.725 386.055 97.5828 386.997C98.4406 387.94 99.6415 388.54 101.014 388.968C102.472 389.311 104.273 389.568 106.418 389.568H107.361H108.905V383.484H107.361C106.075 383.484 105.131 383.398 104.359 383.313C103.587 383.227 103.073 382.884 102.644 382.541C102.215 382.113 101.957 381.599 101.872 380.828C101.786 380.056 101.7 379.114 101.7 377.914V367.46H108.991V361.632H101.7V352.978L95.2668 357.262V361.461Z" fill="white"/>
<path d="M225.821 361.461H219.473V367.288H225.821V377.828C225.821 380.056 225.993 381.942 226.336 383.398C226.679 384.855 227.279 386.055 228.137 386.997C228.995 387.94 230.196 388.54 231.568 388.968C233.026 389.311 234.828 389.568 236.972 389.568H237.916H239.46V383.484H237.916C236.629 383.484 235.686 383.398 234.914 383.313C234.142 383.227 233.627 382.884 233.198 382.541C232.769 382.113 232.512 381.599 232.426 380.828C232.34 380.056 232.254 379.114 232.254 377.914V367.46H239.546V361.632H232.254V352.978L225.735 357.434V361.461H225.821Z" fill="white"/>
</svg>
